<svg width="25" height="25" viewBox="0 0 25 25" fill="none" xmlns="http://www.w3.org/2000/svg">
<path fill-rule="evenodd" clip-rule="evenodd" d="M17.2078 2.22969C17.7206 1.71731 18.4158 1.42949 19.1407 1.42949C19.8655 1.42949 20.5607 1.71731 21.0735 2.22969L22.7703 3.92656C23.2827 4.4393 23.5705 5.13451 23.5705 5.85937C23.5705 6.58424 23.2827 7.27945 22.7703 7.79219L9.31721 21.2453C8.98909 21.5734 8.58284 21.8141 8.13596 21.9406L3.05628 23.3937C2.85522 23.4512 2.64245 23.4538 2.44004 23.4013C2.23762 23.3488 2.05295 23.2431 1.90517 23.0952C1.75738 22.9472 1.65188 22.7624 1.5996 22.56C1.54731 22.3575 1.55016 22.1447 1.60784 21.9437L3.0594 16.8656C3.18664 16.4181 3.42596 16.0105 3.75471 15.6812L17.2078 2.22812V2.22969ZM19.4172 3.88594C19.3809 3.84956 19.3378 3.8207 19.2904 3.801C19.2429 3.78131 19.192 3.77118 19.1407 3.77118C19.0893 3.77118 19.0384 3.78131 18.9909 3.801C18.9435 3.8207 18.9004 3.84956 18.8641 3.88594L16.8922 5.85937L19.1407 8.10937L21.1141 6.13594C21.1505 6.09965 21.1793 6.05654 21.199 6.00909C21.2187 5.96163 21.2288 5.91075 21.2288 5.85937C21.2288 5.80799 21.2187 5.75712 21.199 5.70966C21.1793 5.6622 21.1505 5.6191 21.1141 5.58281L19.4172 3.88594ZM17.4828 9.76562L15.2344 7.51562L5.41253 17.3391C5.36538 17.3859 5.33096 17.444 5.31253 17.5078L4.44065 20.5594L7.49221 19.6875C7.55608 19.6691 7.61418 19.6347 7.66096 19.5875L17.4828 9.76562Z" fill="black"/>
</svg>
