<svg width="25" height="25" viewBox="0 0 25 25" fill="none" xmlns="http://www.w3.org/2000/svg">
<path fill-rule="evenodd" clip-rule="evenodd" d="M2.07187 3.08281C2.13815 2.84383 2.25117 2.62037 2.40441 2.42537C2.55764 2.23038 2.74803 2.06771 2.96456 1.94681C3.18109 1.8259 3.41945 1.74915 3.66585 1.721C3.91225 1.69285 4.16178 1.71385 4.4 1.78281C5.00469 1.95781 5.92656 2.2625 6.86094 2.72343C7.77656 3.17812 8.80313 3.83281 9.51719 4.74843C9.55156 4.79062 9.58281 4.83593 9.6125 4.87968C10.5693 4.74819 11.5342 4.68397 12.5 4.68749C13.5469 4.68749 14.5141 4.74531 15.4078 4.85625L15.4875 4.74687C16.2016 3.83125 17.2281 3.17812 18.1438 2.72343C18.9356 2.33863 19.7595 2.02389 20.6062 1.78281C20.8445 1.71385 21.094 1.69285 21.3404 1.721C21.5868 1.74915 21.8252 1.8259 22.0417 1.94681C22.2582 2.06771 22.4486 2.23038 22.6018 2.42537C22.7551 2.62037 22.8681 2.84383 22.9344 3.08281C23.1531 3.85312 23.4906 5.18749 23.6828 6.66093C23.8062 7.60468 23.875 8.66093 23.7922 9.68593C24.6375 11.2125 25 12.9828 25 14.8437C25 20.3125 22.6562 23.4375 12.5 23.4375C2.34375 23.4375 0 20.3125 0 14.8437C0 13.2281 0.371875 11.5187 1.24219 9.97343C1.11719 8.86093 1.18906 7.69218 1.32344 6.66093C1.51406 5.18749 1.85469 3.85312 2.07187 3.08281ZM12.5 20.4141C21.875 20.4141 22.6562 17.2891 21.875 13.7422C20.8797 9.22656 17.5781 7.81249 12.5 7.81249C7.42188 7.81249 4.12031 9.22499 3.125 13.7437C2.34375 17.2906 3.125 20.4156 12.5 20.4156V20.4141Z" fill="black"/>
<path d="M6.25 12.5C6.25 12.0856 6.41462 11.6882 6.70765 11.3951C7.00067 11.1021 7.3981 10.9375 7.8125 10.9375C8.2269 10.9375 8.62433 11.1021 8.91735 11.3951C9.21038 11.6882 9.375 12.0856 9.375 12.5V14.0625C9.375 14.4769 9.21038 14.8743 8.91735 15.1674C8.62433 15.4604 8.2269 15.625 7.8125 15.625C7.3981 15.625 7.00067 15.4604 6.70765 15.1674C6.41462 14.8743 6.25 14.4769 6.25 14.0625V12.5ZM9.49688 16.3937C9.36719 15.9812 9.725 15.625 10.1562 15.625H14.8438C15.275 15.625 15.6328 15.9812 15.5031 16.3937C15.1094 17.6625 13.8031 18.75 12.5 18.75C11.1969 18.75 9.89219 17.6625 9.49688 16.3937ZM15.625 12.5C15.625 12.0856 15.7896 11.6882 16.0826 11.3951C16.3757 11.1021 16.7731 10.9375 17.1875 10.9375C17.6019 10.9375 17.9993 11.1021 18.2924 11.3951C18.5854 11.6882 18.75 12.0856 18.75 12.5V14.0625C18.75 14.4769 18.5854 14.8743 18.2924 15.1674C17.9993 15.4604 17.6019 15.625 17.1875 15.625C16.7731 15.625 16.3757 15.4604 16.0826 15.1674C15.7896 14.8743 15.625 14.4769 15.625 14.0625V12.5Z" fill="black"/>
</svg>
